# xmcd CD database file
#
# Track frame offsets:
#	150
#	31717
#	47335
#
# Disc length: 964 seconds
#
# Revision: 0
# Processed by: cddbd v1.5.1PL0 Copyright (c) Steve Scherf et al.
# Submitted via: CDex 1.51
#
DISCID=1403c203
DTITLE=柴草玲 - 精霊たちのえくぼ
DYEAR=1900
DGENRE=Pop
TTITLE0=精霊たちのえくぼ
TTITLE1=かげぼうし
TTITLE2=アクアリウム
EXTD=
EXTT0=
EXTT1=
EXTT2=
PLAYORDER=
